<svg version="1.1"
         xmlns="http://www.w3.org/2000/svg" xmlns:xlink="http://www.w3.org/1999/xlink" 
         x="0px" y="0px" width="102.5px" height="44.975px" viewBox="0 0 408.2 179.9" style="enable-background:new 0 0 408.2 179.9;"
         xml:space="preserve">
            <style type="text/css">
                .st0{fill:#ecf0f1;
                }
            </style>
            <defs>
            </defs>
            <g>
                <g>
                    <g>
                        <path class="st0" d="M99,93c-1.7,0-3,1.3-3,3v42H6V24h90v42c0,1.7,1.3,3,3,3s3-1.3,3-3V13.2C102,5.9,96,0,88.7,0H13.2
                            C5.9,0,0,5.9,0,13.2v153.5c0,7.3,5.9,13.2,13.2,13.2h75.5c7.3,0,13.2-5.9,13.2-13.2V95.9C102,94.3,100.6,93,99,93z M13.2,6h75.5
                            c4,0,7.2,3.2,7.2,7.2V18H6v-4.8C6,9.2,9.2,6,13.2,6z M88.7,173.9H13.2c-4,0-7.2-3.2-7.2-7.2v-22.8h90v22.8
                            C96,170.7,92.7,173.9,88.7,173.9z"/>
                        <path class="st0" d="M51,146.9c-6.6,0-12,5.4-12,12s5.4,12,12,12s12-5.4,12-12S57.6,146.9,51,146.9z M51,164.9c-3.3,0-6-2.7-6-6
                            s2.7-6,6-6s6,2.7,6,6S54.3,164.9,51,164.9z"/>
                        <path class="st0" d="M45,15h12c1.7,0,3-1.3,3-3s-1.3-3-3-3H45c-1.7,0-3,1.3-3,3S43.3,15,45,15z"/>
                    </g>
                    <path class="st0" d="M164.7,82.1c0.3-0.7,0.3-1.6,0-2.3c-0.2-0.4-0.4-0.7-0.7-1l-36-36c-1.2-1.2-3.1-1.2-4.2,0s-1.2,3.1,0,4.2
                        L154.7,78H48c-1.7,0-3,1.3-3,3c0,1.7,1.3,3,3,3h106.7l-30.9,30.9c-1.2,1.2-1.2,3.1,0,4.2c0.6,0.6,1.4,0.9,2.1,0.9s1.5-0.3,2.1-0.9
                        l36-36C164.3,82.8,164.6,82.5,164.7,82.1z"/>
                </g>
                <path class="st0" d="M392.6,0.1H217.7c-8.6,0-15.6,7-15.6,15.6v118.7c0,8.6,7,15.6,15.6,15.6H302v23.6h-36.7
                    c-1.7,0-3.1,1.4-3.1,3.1s1.4,3.1,3.1,3.1H345c1.7,0,3.1-1.4,3.1-3.1s-1.4-3.1-3.1-3.1h-36.7V150h84.3c8.6,0,15.6-7,15.6-15.6V15.7
                    C408.2,7.1,401.2,0.1,392.6,0.1z M402,134.4c0,5.2-4.2,9.4-9.4,9.4h-87.4c0,0,0,0,0,0c0,0,0,0,0,0h-87.4c-5.2,0-9.4-4.2-9.4-9.4
                    V15.7c0-5.2,4.2-9.4,9.4-9.4h174.9c5.2,0,9.4,4.2,9.4,9.4V134.4z"/>
            </g>
        </svg>