<svg id="Layer_1" data-name="Layer 1" xmlns="http://www.w3.org/2000/svg" viewBox="0 0 90.6 161"><title>logo1NoText</title><path d="M417.2,216.8,329,279.4c11.1,3.7,21.8,8.2,32.6,12.3l56.6-40.2C416.5,240.4,416.8,228.6,417.2,216.8Z" transform="translate(-327.6 -174.3)" style="fill:gray;opacity:0.5"/><path d="M327.6,186.6,416,253c.1-12.2,1.1-24,1.6-36.1l-56.7-42.7C350.6,179.5,339.2,183.1,327.6,186.6Z" transform="translate(-327.6 -174.3)" style="fill:#f2f2f2;opacity:0.5"/><path d="M361.5,335.3l2.1-122.1c-11,7.7-22.4,14.5-33.6,21.7l-1.3,78.4C340.1,319.1,350.9,327.1,361.5,335.3Z" transform="translate(-327.6 -174.3)" style="opacity:0.5"/></svg>